<?xml version="1.0" standalone="no"?>
<!DOCTYPE svg PUBLIC "-//W3C//DTD SVG 20010904//EN"
 "http://www.w3.org/TR/2001/REC-SVG-20010904/DTD/svg10.dtd">
<svg version="1.0" xmlns="http://www.w3.org/2000/svg"
 width="960.000000pt" height="540.000000pt" viewBox="0 0 960.000000 540.000000"
 preserveAspectRatio="xMidYMid meet">

<g transform="translate(0.000000,540.000000) scale(0.100000,-0.100000)"
fill="#000000" stroke="none">
<path d="M3538 5253 c7 -3 16 -2 19 1 4 3 -2 6 -13 5 -11 0 -14 -3 -6 -6z"/>
<path d="M4928 5253 c7 -3 16 -2 19 1 4 3 -2 6 -13 5 -11 0 -14 -3 -6 -6z"/>
<path d="M6358 5253 c7 -3 16 -2 19 1 4 3 -2 6 -13 5 -11 0 -14 -3 -6 -6z"/>
<path d="M7728 5253 c7 -3 16 -2 19 1 4 3 -2 6 -13 5 -11 0 -14 -3 -6 -6z"/>
<path d="M1670 4485 l0 -455 25 0 25 0 0 130 0 130 100 0 c100 0 101 0 111 27
7 18 9 129 7 305 l-3 278 283 0 c275 0 282 0 282 20 0 20 -7 20 -415 20 l-415
0 0 -455z"/>
<path d="M2780 4920 c0 -19 8 -20 268 -22 l267 -3 3 -82 3 -83 79 0 80 0 0
-435 0 -435 -80 0 -80 0 0 -84 c0 -58 4 -85 13 -88 6 -3 42 -5 80 -4 l67 1 0
-277 0 -278 -155 0 c-148 0 -155 -1 -155 -20 0 -19 7 -20 180 -20 l180 0 0
170 0 170 25 0 c18 0 25 5 25 20 0 15 -7 20 -25 20 l-25 0 0 715 0 715 395 0
c388 0 395 0 395 20 0 20 -7 20 -770 20 -761 0 -770 0 -770 -20z"/>
<path d="M4600 4920 c0 -19 7 -20 134 -20 l133 0 7 -46 c3 -26 6 -169 6 -319
0 -150 -3 -293 -6 -319 l-7 -46 -498 0 -499 0 0 -105 c0 -98 1 -105 20 -105
18 0 20 7 20 85 l0 85 480 0 480 0 0 -500 0 -500 -185 0 c-178 0 -185 -1 -185
-20 0 -19 7 -20 210 -20 l210 0 0 315 0 315 135 0 135 0 0 310 0 310 -135 0
-135 0 0 280 0 280 175 0 c168 0 175 1 175 20 0 20 -7 20 -335 20 -328 0 -335
0 -335 -20z m365 -651 c11 -16 1 -19 -13 -3 -7 8 -8 14 -3 14 5 0 13 -5 16
-11z m0 -479 c-3 -5 -12 -10 -18 -10 -7 0 -6 4 3 10 19 12 23 12 15 0z"/>
<path d="M5600 4920 c0 -20 5 -20 137 -18 121 3 136 5 139 21 2 15 -10 17
-137 17 -133 0 -139 -1 -139 -20z"/>
<path d="M6130 4920 c0 -19 7 -20 125 -20 l124 0 3 -262 c2 -145 1 -271 -1
-280 -3 -15 -18 -18 -110 -20 l-106 -3 -3 -307 -2 -308 109 0 109 0 4 -42 c3
-24 4 -98 2 -165 l-3 -123 25 0 24 0 0 445 0 445 660 0 660 0 0 -261 0 -260
23 3 22 3 3 333 2 332 -310 0 c-303 0 -310 0 -310 -20 0 -19 -7 -20 -140 -20
-133 0 -140 1 -140 20 0 19 -8 20 -237 22 l-238 3 -3 253 -2 252 -145 0 c-138
0 -145 -1 -145 -20z"/>
<path d="M8230 4920 c0 -5 5 -10 10 -10 6 0 10 5 10 10 0 6 -4 10 -10 10 -5 0
-10 -4 -10 -10z"/>
<path d="M5310 4775 l0 -125 120 0 c73 0 120 4 120 10 0 6 -6 10 -13 10 -9 0
-11 12 -9 40 2 22 8 40 13 40 5 0 9 10 9 23 0 18 -2 19 -10 7 -7 -11 -10 0
-10 37 0 28 5 55 10 58 29 18 -1 25 -110 25 l-120 0 0 -125z"/>
<path d="M1350 4880 c0 -5 5 -10 10 -10 6 0 10 5 10 10 0 6 -4 10 -10 10 -5 0
-10 -4 -10 -10z"/>
<path d="M8100 4880 c0 -5 5 -10 10 -10 6 0 10 5 10 10 0 6 -4 10 -10 10 -5 0
-10 -4 -10 -10z"/>
<path d="M3785 4873 c-40 -4 -41 -5 -37 -38 4 -30 6 -32 22 -23 11 7 15 19 12
31 -4 17 -1 19 21 15 19 -4 27 -1 27 8 0 8 -1 13 -2 12 -2 -1 -21 -3 -43 -5z"/>
<path d="M3846 4858 c-2 -10 0 -21 5 -24 5 -3 9 2 9 10 0 9 9 16 20 16 13 0
20 -7 20 -18 0 -19 18 -42 34 -42 5 0 7 3 4 6 -4 3 -3 18 2 34 8 28 8 28 -40
32 -40 2 -50 0 -54 -14z"/>
<path d="M5543 4835 c0 -22 2 -30 4 -17 2 12 2 30 0 40 -3 9 -5 -1 -4 -23z"/>
<path d="M3813 4793 c15 -2 39 -2 55 0 15 2 2 4 -28 4 -30 0 -43 -2 -27 -4z"/>
<path d="M2829 4588 c-2 -7 -2 -150 1 -318 l5 -305 60 -3 c33 -2 79 -1 103 3
l42 6 0 315 0 314 -104 0 c-75 0 -105 -4 -107 -12z"/>
<path d="M8100 4409 c0 -5 5 -7 10 -4 6 3 10 8 10 11 0 2 -4 4 -10 4 -5 0 -10
-5 -10 -11z"/>
<path d="M8100 4369 c0 -5 5 -7 10 -4 6 3 10 8 10 11 0 2 -4 4 -10 4 -5 0 -10
-5 -10 -11z"/>
<path d="M5522 4023 l3 -198 139 0 140 0 -2 175 c0 96 -1 185 -1 198 -1 22 -3
22 -141 22 l-140 0 2 -197z"/>
<path d="M1670 2420 l0 -1260 295 0 c288 0 295 0 295 20 0 20 -7 20 -270 20
l-270 0 0 25 c0 25 1 25 80 25 l80 0 0 85 0 85 -80 0 -80 0 0 295 0 295 80 0
80 0 0 85 0 85 -80 0 -80 0 0 35 0 35 430 0 430 0 0 80 0 80 86 0 c83 0 85 1
82 23 l-3 22 -512 3 -513 2 0 315 0 315 600 0 c590 0 600 0 600 20 0 18 -8 20
-112 22 l-113 3 -3 78 -3 77 -484 0 -485 0 0 195 0 195 -25 0 -25 0 0 -1260z"/>
<path d="M3870 3575 c0 -98 -1 -105 -20 -105 -12 0 -20 -7 -20 -16 0 -9 9 -18
20 -21 19 -5 20 -14 20 -174 l0 -169 185 0 c178 0 185 1 185 20 0 18 -8 20
-162 22 l-163 3 -3 273 c-2 264 -3 272 -22 272 -19 0 -20 -7 -20 -105z"/>
<path d="M4793 3489 c10 -6 24 -8 32 -5 9 3 12 0 8 -10 -3 -7 0 -14 6 -14 6 0
11 9 11 20 0 16 -7 20 -37 20 -32 -1 -35 -2 -20 -11z"/>
<path d="M7750 3186 l0 -296 -55 0 -55 0 0 -215 0 -215 -332 -2 c-325 -3 -333
-3 -333 -23 0 -20 7 -20 410 -20 l410 0 0 530 0 530 -22 3 -23 3 0 -295z"/>
<path d="M4826 3437 c2 -7 -8 -18 -23 -24 l-28 -11 38 -1 c30 -1 37 3 37 18 0
10 -7 21 -14 24 -9 4 -13 1 -10 -6z"/>
<path d="M5547 3343 c-4 -3 -7 -70 -7 -147 l0 -141 405 0 c317 0 405 3 405 13
0 9 -29 12 -111 12 l-110 0 1 123 c1 67 1 128 1 135 -1 9 -66 12 -289 12 -159
0 -292 -3 -295 -7z m71 -227 c-7 -8 -15 -12 -17 -11 -5 6 10 25 20 25 5 0 4
-6 -3 -14z m452 4 c0 -5 -2 -10 -4 -10 -3 0 -8 5 -11 10 -3 6 -1 10 4 10 6 0
11 -4 11 -10z"/>
<path d="M1350 3150 c0 -5 5 -10 10 -10 6 0 10 5 10 10 0 6 -4 10 -10 10 -5 0
-10 -4 -10 -10z"/>
<path d="M1350 3070 c0 -5 5 -10 10 -10 6 0 10 5 10 10 0 6 -4 10 -10 10 -5 0
-10 -4 -10 -10z"/>
<path d="M1350 2470 c0 -5 5 -10 10 -10 6 0 10 5 10 10 0 6 -4 10 -10 10 -5 0
-10 -4 -10 -10z"/>
<path d="M8100 2469 c0 -5 5 -7 10 -4 6 3 10 8 10 11 0 2 -4 4 -10 4 -5 0 -10
-5 -10 -11z"/>
<path d="M3007 2453 c-4 -3 -7 -15 -7 -25 0 -16 10 -18 115 -18 l115 0 0 -605
0 -605 -345 0 c-338 0 -345 0 -345 -20 0 -20 7 -20 510 -20 501 0 510 0 510
20 0 18 -8 20 -142 22 l-143 3 -3 213 -2 212 85 0 85 0 0 85 0 85 -62 2 c-35
1 -72 2 -83 2 -19 1 -20 9 -23 304 l-2 302 146 0 c145 0 145 0 142 23 l-3 22
-271 3 c-149 1 -273 -1 -277 -5z"/>
<path d="M3814 2446 c-11 -29 7 -36 101 -36 l94 0 3 -77 3 -78 215 -2 c118 -1
311 -3 428 -3 l212 0 0 -115 0 -115 -54 0 c-67 0 -66 5 -66 -205 0 -210 -1
-205 66 -205 l54 0 0 -205 0 -205 -485 0 c-478 0 -485 0 -485 -20 0 -20 7 -20
794 -20 785 0 794 0 799 20 3 11 1 23 -4 26 -5 3 -9 36 -9 74 l0 70 -202 2
-203 3 -3 508 -2 507 -75 0 -74 0 -3 43 -3 42 -548 3 c-473 2 -548 0 -553 -12z"/>
<path d="M6387 2454 c-4 -4 -7 -90 -7 -191 0 -176 1 -183 20 -183 19 0 20 7
20 165 l0 165 151 0 c150 0 150 0 147 23 -3 22 -6 22 -164 25 -88 1 -163 -1
-167 -4z"/>
<path d="M8100 2440 c0 -5 5 -10 11 -10 5 0 7 5 4 10 -3 6 -8 10 -11 10 -2 0
-4 -4 -4 -10z"/>
<path d="M5510 2063 c0 -10 -1 -90 -3 -178 l-2 -160 198 -3 197 -2 0 180 0
180 -195 0 c-179 0 -195 -1 -195 -17z"/>
<path d="M5330 2000 c0 -43 4 -60 13 -60 21 0 26 10 18 38 -4 15 -4 39 0 55 6
23 4 27 -12 27 -17 0 -19 -8 -19 -60z"/>
<path d="M6045 2000 c0 -50 3 -60 18 -60 14 0 17 10 17 60 0 50 -3 60 -17 60
-15 0 -18 -10 -18 -60z"/>
<path d="M2120 1711 l0 -239 73 -7 c40 -4 84 -5 97 -3 l25 3 0 240 0 240 -97
3 -98 3 0 -240z"/>
<path d="M6045 1790 c0 -41 4 -60 13 -60 8 0 12 19 12 60 0 41 -4 60 -12 60
-9 0 -13 -19 -13 -60z"/>
<path d="M5339 1820 c-5 -68 0 -100 14 -95 7 4 12 26 12 60 0 37 -4 55 -12 55
-7 0 -14 -9 -14 -20z"/>
<path d="M6380 1510 l0 -310 -115 0 -114 0 -3 78 c-2 42 -6 76 -10 75 -5 -2
-84 -3 -178 -3 l-170 0 0 -75 c0 -43 -4 -75 -10 -75 -5 0 -10 -9 -10 -20 0
-20 7 -20 325 -20 l325 0 0 330 c0 323 0 330 -20 330 -20 0 -20 -7 -20 -310z"/>
<path d="M1350 1790 c-9 -6 -10 -10 -3 -10 6 0 15 5 18 10 8 12 4 12 -15 0z"/>
<path d="M3650 1365 l0 -166 88 3 87 3 0 140 c1 191 4 185 -95 185 l-80 0 0
-165z"/>
<path d="M4214 1405 c0 -49 1 -71 3 -48 2 23 2 64 0 90 -2 26 -3 8 -3 -42z"/>
<path d="M3602 1380 c0 -19 2 -27 5 -17 2 9 2 25 0 35 -3 9 -5 1 -5 -18z"/>
<path d="M6203 1363 c31 -2 83 -2 115 0 31 2 5 3 -58 3 -63 0 -89 -1 -57 -3z"/>
<path d="M4211 1268 c-1 -27 3 -48 7 -48 4 0 6 17 4 38 -5 58 -10 62 -11 10z"/>
<path d="M1350 1220 c0 -5 5 -10 10 -10 6 0 10 5 10 10 0 6 -4 10 -10 10 -5 0
-10 -4 -10 -10z"/>
<path d="M8100 1220 c0 -5 5 -10 10 -10 6 0 10 5 10 10 0 6 -4 10 -10 10 -5 0
-10 -4 -10 -10z"/>
<path d="M8230 1180 c0 -5 5 -10 10 -10 6 0 10 5 10 10 0 6 -4 10 -10 10 -5 0
-10 -4 -10 -10z"/>
<path d="M3208 843 c7 -3 16 -2 19 1 4 3 -2 6 -13 5 -11 0 -14 -3 -6 -6z"/>
<path d="M4928 843 c7 -3 16 -2 19 1 4 3 -2 6 -13 5 -11 0 -14 -3 -6 -6z"/>
<path d="M6358 843 c7 -3 16 -2 19 1 4 3 -2 6 -13 5 -11 0 -14 -3 -6 -6z"/>
<path d="M7728 843 c7 -3 16 -2 19 1 4 3 -2 6 -13 5 -11 0 -14 -3 -6 -6z"/>
<path d="M4721 714 c0 -11 3 -14 6 -6 3 7 2 16 -1 19 -3 4 -6 -2 -5 -13z"/>
<path d="M1685 710 c3 -5 8 -10 11 -10 2 0 4 5 4 10 0 6 -5 10 -11 10 -5 0 -7
-4 -4 -10z"/>
<path d="M7765 710 c4 -6 11 -8 16 -5 14 9 11 15 -7 15 -8 0 -12 -5 -9 -10z"/>
<path d="M8090 475 c0 -25 5 -45 10 -45 6 0 10 9 10 20 0 15 7 20 28 21 25 1
26 1 4 7 -13 4 -23 12 -23 17 0 6 10 13 23 17 18 5 15 6 -14 7 l-38 1 0 -45z"/>
<path d="M8437 513 c-13 -12 -7 -23 24 -38 20 -11 29 -21 25 -31 -3 -9 -1 -12
4 -9 20 12 9 36 -21 47 -19 7 -28 15 -25 24 6 15 3 18 -7 7z"/>
<path d="M8575 500 c21 -23 14 -47 -17 -60 -16 -6 -18 -9 -6 -9 18 -1 48 24
48 40 0 18 -20 49 -32 49 -6 0 -3 -9 7 -20z"/>
<path d="M8181 462 c1 -21 3 -28 6 -17 3 11 11 25 19 31 12 10 11 12 -6 17
-17 4 -20 1 -19 -31z"/>
<path d="M8240 485 c-20 -24 -8 -50 25 -52 20 -1 23 0 8 4 -31 6 -29 21 4 25
26 3 26 4 9 21 -21 21 -30 21 -46 2z m37 -11 c-3 -3 -12 -4 -19 -1 -8 3 -5 6
6 6 11 1 17 -2 13 -5z"/>
<path d="M8320 485 c-20 -24 -8 -50 25 -52 20 -1 23 0 8 4 -31 6 -29 23 2 23
23 0 24 2 15 20 -13 24 -33 26 -50 5z m37 -11 c-3 -3 -12 -4 -19 -1 -8 3 -5 6
6 6 11 1 17 -2 13 -5z"/>
<path d="M8652 488 c-14 -14 -16 -44 -4 -52 4 -2 8 8 7 22 0 21 5 27 22 26 12
0 20 3 17 8 -7 12 -28 10 -42 -4z"/>
<path d="M8810 496 c0 -2 7 -7 16 -10 8 -3 12 -2 9 4 -6 10 -25 14 -25 6z"/>
<path d="M8872 488 c-14 -14 -16 -44 -3 -52 5 -4 7 4 4 15 -4 15 0 27 12 35
11 8 14 14 9 14 -6 0 -15 -5 -22 -12z"/>
<path d="M8978 493 c7 -3 16 -2 19 1 4 3 -2 6 -13 5 -11 0 -14 -3 -6 -6z"/>
<path d="M8780 443 c0 -25 2 -44 5 -41 9 9 11 88 3 88 -4 0 -8 -21 -8 -47z"/>
<path d="M8940 460 c0 -16 2 -30 4 -30 2 0 6 14 8 30 3 17 1 30 -4 30 -4 0 -8
-13 -8 -30z"/>
<path d="M8721 448 c-13 -21 -13 -22 2 -9 14 11 20 11 34 0 15 -13 15 -12 2 9
-8 12 -16 22 -19 22 -3 0 -11 -10 -19 -22z"/>
<path d="M8832 450 c-7 -11 -8 -20 -3 -20 9 0 24 30 18 36 -1 2 -8 -6 -15 -16z"/>
<path d="M7787 404 c-10 -10 27 -72 46 -77 12 -4 17 -15 17 -41 0 -41 1 -41
40 -21 27 14 30 20 30 66 0 55 5 53 -59 33 -14 -4 -24 2 -36 20 -17 26 -27 31
-38 20z m97 -100 c22 -8 20 -21 -4 -27 -15 -4 -20 0 -20 14 0 21 1 22 24 13z"/>
<path d="M8112 368 c-7 -7 -12 -20 -12 -29 0 -10 -6 -20 -12 -23 -10 -5 -10
-7 0 -12 7 -4 12 -27 12 -65 0 -33 4 -59 10 -59 6 0 10 27 10 60 0 47 3 60 15
60 20 0 19 16 -1 24 -16 6 -16 8 0 24 9 10 16 22 16 25 0 11 -25 8 -38 -5z"/>
<path d="M8180 275 c0 -57 4 -95 10 -95 6 0 10 38 10 95 0 57 -4 95 -10 95 -6
0 -10 -38 -10 -95z"/>
<path d="M8770 275 c0 -57 4 -95 10 -95 6 0 10 38 10 95 0 57 -4 95 -10 95 -6
0 -10 -38 -10 -95z"/>
<path d="M7750 325 c0 -27 1 -28 24 -19 22 8 20 21 -4 34 -18 9 -20 8 -20 -15z"/>
<path d="M8280 323 c-63 -22 -49 -143 17 -143 50 0 73 90 33 130 -21 21 -25
22 -50 13z m46 -49 c8 -31 -10 -74 -31 -74 -24 0 -40 45 -27 75 16 34 50 33
58 -1z"/>
<path d="M8420 323 c-62 -22 -49 -143 16 -143 27 0 41 11 52 41 14 34 4 77
-21 94 -23 16 -24 16 -47 8z m44 -39 c16 -41 0 -84 -31 -84 -21 0 -36 50 -24
77 12 26 46 31 55 7z"/>
<path d="M8567 313 c-10 -11 -17 -13 -17 -5 0 7 -4 12 -10 12 -6 0 -10 -30
-10 -70 0 -40 4 -70 10 -70 6 0 10 20 10 45 0 32 6 50 21 64 12 11 20 24 17
31 -2 6 -10 4 -21 -7z"/>
<path d="M8671 321 c-7 -5 -22 -6 -32 -4 -18 5 -19 -1 -19 -91 0 -79 3 -96 15
-96 10 0 15 10 15 29 0 25 3 28 27 23 34 -7 53 19 53 73 0 28 -6 47 -18 58
-21 19 -22 20 -41 8z m31 -46 c15 -32 -4 -78 -30 -73 -17 3 -29 56 -18 84 9
22 35 16 48 -11z"/>
<path d="M8853 320 c-13 -5 -23 -14 -23 -20 0 -13 6 -13 29 2 22 14 51 4 51
-17 0 -9 -9 -15 -23 -15 -30 0 -67 -27 -67 -49 0 -28 22 -40 68 -38 l42 1 0
63 c0 51 -3 64 -19 73 -23 12 -28 12 -58 0z m52 -100 c-5 -14 -13 -20 -28 -18
-31 4 -34 36 -5 47 29 11 42 0 33 -29z"/>
<path d="M9019 319 c-8 -5 -22 -6 -31 -3 -16 5 -18 -3 -18 -65 0 -55 3 -71 15
-71 10 0 15 15 17 58 3 49 6 57 23 57 17 0 20 -8 23 -57 2 -43 7 -58 17 -58
11 0 15 12 15 44 0 76 -26 117 -61 95z"/>
<path d="M9160 320 c-8 -5 -23 -7 -32 -4 -16 5 -18 -3 -18 -65 0 -55 3 -71 15
-71 10 0 15 15 17 58 3 49 6 57 23 57 17 0 20 -8 23 -57 2 -43 7 -58 17 -58
21 0 20 98 -1 128 -17 25 -22 26 -44 12z"/>
<path d="M9290 323 c-40 -14 -56 -96 -24 -127 20 -21 58 -20 79 0 22 22 11 30
-20 14 -20 -11 -27 -11 -40 0 -29 24 -18 40 30 40 38 0 45 3 45 20 0 20 -33
61 -47 59 -5 0 -15 -3 -23 -6z m40 -33 c10 -18 8 -20 -25 -20 -33 0 -35 2 -25
20 6 11 17 20 25 20 8 0 19 -9 25 -20z"/>
<path d="M9436 322 c-4 -7 -16 -10 -27 -7 -17 6 -19 1 -19 -64 0 -56 3 -71 15
-71 11 0 15 12 15 47 0 29 6 53 16 64 9 10 14 24 12 30 -3 10 -6 10 -12 1z"/>
</g>
</svg>
